<svg width="16" height="14" viewBox="0 0 16 14" fill="none" xmlns="http://www.w3.org/2000/svg">
<path fill-rule="evenodd" clip-rule="evenodd" d="M0 7C0 6.44772 0.447715 6 1 6H14.7143C15.2666 6 15.7143 6.44772 15.7143 7C15.7143 7.55228 15.2666 8 14.7143 8H1C0.447715 8 0 7.55228 0 7Z" fill="white"/>
<path fill-rule="evenodd" clip-rule="evenodd" d="M8.00725 0.292893C8.39777 -0.0976311 9.03094 -0.0976311 9.42146 0.292893L15.4215 6.29289C15.812 6.68342 15.812 7.31658 15.4215 7.70711L9.42146 13.7071C9.03094 14.0976 8.39777 14.0976 8.00725 13.7071C7.61672 13.3166 7.61672 12.6834 8.00725 12.2929L13.3001 7L8.00725 1.70711C7.61672 1.31658 7.61672 0.683417 8.00725 0.292893Z" fill="white"/>
</svg>
